<?xml version="1.0" standalone="no"?>
<!DOCTYPE svg PUBLIC "-//W3C//DTD SVG 20010904//EN"
 "http://www.w3.org/TR/2001/REC-SVG-20010904/DTD/svg10.dtd">
<svg version="1.0" xmlns="http://www.w3.org/2000/svg"
 width="200.000000pt" height="200.000000pt" viewBox="0 0 200.000000 200.000000"
 preserveAspectRatio="xMidYMid meet">

<g transform="translate(0.000000,200.000000) scale(0.100000,-0.100000)"
fill="#000000" stroke="none">
<path d="M0 1000 l0 -1000 1000 0 1000 0 0 1000 0 1000 -1000 0 -1000 0 0
-1000z m1468 600 l92 -52 0 -542 0 -542 -112 -65 -113 -65 -112 65 -113 65 -2
168 -3 168 -107 -62 -108 -62 0 -112 0 -113 -72 -42 c-40 -23 -91 -52 -113
-65 l-40 -22 -112 65 -113 65 0 541 0 542 97 55 c53 30 104 59 114 64 13 6 46
-8 128 -55 l111 -63 0 -168 c0 -92 2 -168 5 -168 3 0 53 27 110 61 l105 61 0
113 0 112 113 66 c98 57 114 63 132 52 11 -6 62 -36 113 -65z"/>
<path d="M1240 1590 c-47 -28 -86 -53 -87 -58 -3 -8 165 -107 182 -107 14 0
185 98 185 106 0 8 -174 109 -186 109 -5 0 -47 -23 -94 -50z"/>
<path d="M558 1569 l-88 -51 0 -510 0 -510 23 14 c12 8 52 32 90 52 l67 38 0
106 0 107 320 184 c176 101 320 185 320 186 0 2 -40 26 -89 54 l-90 50 -217
-125 c-119 -69 -223 -128 -230 -131 -11 -4 -14 49 -16 290 l-3 296 -87 -50z"/>
<path d="M680 1350 c0 -157 4 -270 9 -268 5 2 45 23 90 48 l81 45 0 172 0 172
-67 39 c-38 22 -78 45 -90 51 l-23 12 0 -271z"/>
<path d="M1140 1402 l0 -97 84 -47 c46 -27 86 -48 90 -48 3 0 6 42 6 93 l0 92
-90 52 -90 52 0 -97z"/>
<path d="M1438 1446 l-88 -51 0 -105 0 -106 -302 -174 c-167 -95 -311 -179
-321 -186 -16 -10 -8 -18 72 -64 l91 -51 226 130 c124 72 228 131 230 131 2 0
4 -133 4 -296 0 -163 3 -294 8 -292 39 17 164 93 168 102 2 6 3 236 2 512 l-3
500 -87 -50z"/>
<path d="M1223 869 l-83 -50 0 -169 0 -169 85 -51 c47 -27 88 -50 90 -50 3 0
5 122 5 270 0 149 -3 270 -7 269 -5 0 -45 -23 -90 -50z"/>
<path d="M680 697 l0 -93 90 -51 90 -52 0 97 -1 97 -83 48 c-46 26 -86 47 -90
47 -3 0 -6 -42 -6 -93z"/>
<path d="M582 531 c-45 -26 -87 -52 -93 -58 -14 -14 163 -117 188 -109 10 4
55 28 101 55 l83 48 -93 53 c-51 29 -95 54 -98 56 -3 1 -43 -19 -88 -45z"/>
</g>
</svg>
